<?xml version="1.0" encoding="UTF-8" standalone="no"?>
<!DOCTYPE svg PUBLIC "-//W3C//DTD SVG 1.1//EN"
 "http://www.w3.org/Graphics/SVG/1.1/DTD/svg11.dtd">
<!-- Generated by graphviz version 2.43.0 (0)
 -->
<!-- Title: layered Pages: 1 -->
<svg width="1453pt" height="551pt"
 viewBox="0.00 0.00 1453.00 550.75" xmlns="http://www.w3.org/2000/svg" xmlns:xlink="http://www.w3.org/1999/xlink">
<g id="graph0" class="graph" transform="scale(1 1) rotate(0) translate(4 546.75)">
<title>layered</title>
<polygon fill="white" stroke="transparent" points="-4,4 -4,-546.75 1449,-546.75 1449,4 -4,4"/>
<text text-anchor="middle" x="722.5" y="-527.55" font-family="Times,serif" font-size="14.00">xschem core architecture — layered by SCC&#45;condensed call graph</text>
<text text-anchor="middle" x="722.5" y="-512.55" font-family="Times,serif" font-size="14.00">(leaf utils excluded, edges &gt;=30 calls; dashed red = cycle/back&#45;edge)</text>
<!-- paste.c -->
<g id="node1" class="node">
<title>paste.c</title>
<polygon fill="lightyellow" stroke="black" points="1275,-504.75 1218,-504.75 1218,-468.75 1275,-468.75 1275,-504.75"/>
<text text-anchor="middle" x="1246.5" y="-483.95" font-family="Times,serif" font-size="11.00">paste.c</text>
</g>
<!-- save.c -->
<g id="node15" class="node">
<title>save.c</title>
<polygon fill="lightyellow" stroke="black" points="1254.5,-270.75 1200.5,-270.75 1200.5,-234.75 1254.5,-234.75 1254.5,-270.75"/>
<text text-anchor="middle" x="1227.5" y="-249.95" font-family="Times,serif" font-size="11.00">save.c</text>
</g>
<!-- paste.c&#45;&gt;save.c -->
<g id="edge28" class="edge">
<title>paste.c&#45;&gt;save.c</title>
<path fill="none" stroke="#666666" stroke-width="1.4" d="M1245.1,-468.69C1241.84,-428.81 1233.68,-329.18 1229.72,-280.87"/>
<polygon fill="#666666" stroke="#666666" stroke-width="1.4" points="1233.2,-280.52 1228.9,-270.84 1226.23,-281.09 1233.2,-280.52"/>
<text text-anchor="middle" x="1248" y="-366.05" font-family="Times,serif" font-size="14.00">33</text>
</g>
<!-- spectre_netlist.c -->
<g id="node2" class="node">
<title>spectre_netlist.c</title>
<polygon fill="lightyellow" stroke="black" points="1195.5,-504.75 1085.5,-504.75 1085.5,-468.75 1195.5,-468.75 1195.5,-504.75"/>
<text text-anchor="middle" x="1140.5" y="-483.95" font-family="Times,serif" font-size="11.00">spectre_netlist.c</text>
</g>
<!-- token.c -->
<g id="node17" class="node">
<title>token.c</title>
<polygon fill="lightyellow" stroke="black" points="537.5,-36.75 479.5,-36.75 479.5,-0.75 537.5,-0.75 537.5,-36.75"/>
<text text-anchor="middle" x="508.5" y="-15.95" font-family="Times,serif" font-size="11.00">token.c</text>
</g>
<!-- spectre_netlist.c&#45;&gt;token.c -->
<g id="edge21" class="edge">
<title>spectre_netlist.c&#45;&gt;token.c</title>
<path fill="none" stroke="#666666" stroke-width="1.7" d="M1140.5,-468.61C1140.5,-446.14 1140.5,-405.49 1140.5,-370.75 1140.5,-370.75 1140.5,-370.75 1140.5,-134.75 1140.5,-61.28 1059.62,-88.21 988.5,-69.75 828.84,-28.32 630.87,-21.04 547.94,-19.89"/>
<polygon fill="#666666" stroke="#666666" stroke-width="1.7" points="547.75,-16.39 537.71,-19.77 547.67,-23.39 547.75,-16.39"/>
<text text-anchor="middle" x="1150" y="-249.05" font-family="Times,serif" font-size="14.00">45</text>
</g>
<!-- callback.c -->
<g id="node3" class="node">
<title>callback.c</title>
<polygon fill="lightyellow" stroke="black" points="466,-504.75 393,-504.75 393,-468.75 466,-468.75 466,-504.75"/>
<text text-anchor="middle" x="429.5" y="-483.95" font-family="Times,serif" font-size="11.00">callback.c</text>
</g>
<!-- move.c -->
<g id="node11" class="node">
<title>move.c</title>
<polygon fill="lightyellow" stroke="black" points="504.5,-387.75 448.5,-387.75 448.5,-351.75 504.5,-351.75 504.5,-387.75"/>
<text text-anchor="middle" x="476.5" y="-366.95" font-family="Times,serif" font-size="11.00">move.c</text>
</g>
<!-- callback.c&#45;&gt;move.c -->
<g id="edge7" class="edge">
<title>callback.c&#45;&gt;move.c</title>
<path fill="none" stroke="#666666" stroke-width="3.4" d="M435.86,-468.56C440.79,-455.41 447.87,-436.85 454.5,-420.75 457.7,-412.99 461.32,-404.61 464.69,-396.97"/>
<polygon fill="#666666" stroke="#666666" stroke-width="3.4" points="467.9,-398.35 468.76,-387.79 461.5,-395.51 467.9,-398.35"/>
<text text-anchor="middle" x="468.5" y="-424.55" font-family="Times,serif" font-size="14.00">110</text>
</g>
<!-- select.c -->
<g id="node12" class="node">
<title>select.c</title>
<polygon fill="lightyellow" stroke="black" points="819.5,-270.75 759.5,-270.75 759.5,-234.75 819.5,-234.75 819.5,-270.75"/>
<text text-anchor="middle" x="789.5" y="-249.95" font-family="Times,serif" font-size="11.00">select.c</text>
</g>
<!-- callback.c&#45;&gt;select.c -->
<g id="edge35" class="edge">
<title>callback.c&#45;&gt;select.c</title>
<path fill="none" stroke="#666666" stroke-width="1.6" d="M466.04,-483.22C527.7,-477.1 653.13,-456.48 729.5,-387.75 737.99,-380.12 763.98,-317.54 778.82,-280.66"/>
<polygon fill="#666666" stroke="#666666" stroke-width="1.6" points="782.22,-281.59 782.69,-271.01 775.72,-278.99 782.22,-281.59"/>
<text text-anchor="middle" x="759" y="-366.05" font-family="Times,serif" font-size="14.00">41</text>
</g>
<!-- draw.c -->
<g id="node13" class="node">
<title>draw.c</title>
<polygon fill="lightyellow" stroke="black" points="503.5,-270.75 449.5,-270.75 449.5,-234.75 503.5,-234.75 503.5,-270.75"/>
<text text-anchor="middle" x="476.5" y="-249.95" font-family="Times,serif" font-size="11.00">draw.c</text>
</g>
<!-- callback.c&#45;&gt;draw.c -->
<g id="edge12" class="edge">
<title>callback.c&#45;&gt;draw.c</title>
<path fill="none" stroke="#666666" stroke-width="2.1" d="M424.35,-468.48C417.46,-442.62 407.34,-392.5 418.5,-351.75 425.88,-324.8 442.79,-297.73 456.46,-278.9"/>
<polygon fill="#666666" stroke="#666666" stroke-width="2.1" points="459.29,-280.96 462.47,-270.85 453.68,-276.77 459.29,-280.96"/>
<text text-anchor="middle" x="428" y="-366.05" font-family="Times,serif" font-size="14.00">62</text>
</g>
<!-- actions.c -->
<g id="node14" class="node">
<title>actions.c</title>
<polygon fill="lightyellow" stroke="black" points="683,-270.75 616,-270.75 616,-234.75 683,-234.75 683,-270.75"/>
<text text-anchor="middle" x="649.5" y="-249.95" font-family="Times,serif" font-size="11.00">actions.c</text>
</g>
<!-- callback.c&#45;&gt;actions.c -->
<g id="edge30" class="edge">
<title>callback.c&#45;&gt;actions.c</title>
<path fill="none" stroke="#666666" stroke-width="3.7" d="M466.04,-475.48C487.85,-467.7 514.68,-455.01 532.5,-435.75 559.74,-406.31 544.83,-386.13 565.5,-351.75 581.97,-324.37 606.16,-297.08 624.36,-278.28"/>
<polygon fill="#666666" stroke="#666666" stroke-width="3.7" points="627.23,-280.35 631.75,-270.76 622.24,-275.44 627.23,-280.35"/>
<text text-anchor="middle" x="579.5" y="-366.05" font-family="Times,serif" font-size="14.00">123</text>
</g>
<!-- editprop.c -->
<g id="node16" class="node">
<title>editprop.c</title>
<polygon fill="lightyellow" stroke="black" points="545.5,-153.75 471.5,-153.75 471.5,-117.75 545.5,-117.75 545.5,-153.75"/>
<text text-anchor="middle" x="508.5" y="-132.95" font-family="Times,serif" font-size="11.00">editprop.c</text>
</g>
<!-- callback.c&#45;&gt;editprop.c -->
<g id="edge23" class="edge">
<title>callback.c&#45;&gt;editprop.c</title>
<path fill="none" stroke="#666666" stroke-width="1.4" d="M421.31,-468.6C417.22,-459.14 412.7,-447.06 410.5,-435.75 399.3,-378.16 396.55,-361.2 408.5,-303.75 420.19,-247.57 460.37,-192.43 486.11,-161.68"/>
<polygon fill="#666666" stroke="#666666" stroke-width="1.4" points="488.8,-163.92 492.63,-154.04 483.48,-159.38 488.8,-163.92"/>
<text text-anchor="middle" x="418" y="-307.55" font-family="Times,serif" font-size="14.00">34</text>
</g>
<!-- callback.c&#45;&gt;token.c -->
<g id="edge5" class="edge">
<title>callback.c&#45;&gt;token.c</title>
<path fill="none" stroke="#666666" stroke-width="3" d="M392.97,-470.53C356.39,-452.56 305.5,-418.91 305.5,-370.75 305.5,-370.75 305.5,-370.75 305.5,-134.75 305.5,-60.24 410.32,-33.43 469.32,-24.25"/>
<polygon fill="#666666" stroke="#666666" stroke-width="3" points="470.02,-27.68 479.42,-22.78 469.01,-20.75 470.02,-27.68"/>
<text text-anchor="middle" x="315" y="-249.05" font-family="Times,serif" font-size="14.00">96</text>
</g>
<!-- verilog_netlist.c -->
<g id="node4" class="node">
<title>verilog_netlist.c</title>
<polygon fill="lightyellow" stroke="black" points="107,-504.75 0,-504.75 0,-468.75 107,-468.75 107,-504.75"/>
<text text-anchor="middle" x="53.5" y="-483.95" font-family="Times,serif" font-size="11.00">verilog_netlist.c</text>
</g>
<!-- verilog_netlist.c&#45;&gt;token.c -->
<g id="edge15" class="edge">
<title>verilog_netlist.c&#45;&gt;token.c</title>
<path fill="none" stroke="#666666" stroke-width="1.9" d="M53.5,-468.61C53.5,-446.14 53.5,-405.49 53.5,-370.75 53.5,-370.75 53.5,-370.75 53.5,-134.75 53.5,-49.31 358.9,-26.68 469.29,-21.29"/>
<polygon fill="#666666" stroke="#666666" stroke-width="1.9" points="469.52,-24.79 479.35,-20.82 469.19,-17.79 469.52,-24.79"/>
<text text-anchor="middle" x="63" y="-249.05" font-family="Times,serif" font-size="14.00">50</text>
</g>
<!-- check.c -->
<g id="node5" class="node">
<title>check.c</title>
<polygon fill="lightyellow" stroke="black" points="301,-504.75 242,-504.75 242,-468.75 301,-468.75 301,-504.75"/>
<text text-anchor="middle" x="271.5" y="-483.95" font-family="Times,serif" font-size="11.00">check.c</text>
</g>
<!-- netlist.c -->
<g id="node9" class="node">
<title>netlist.c</title>
<polygon fill="lightyellow" stroke="black" points="271.5,-387.75 209.5,-387.75 209.5,-351.75 271.5,-351.75 271.5,-387.75"/>
<text text-anchor="middle" x="240.5" y="-366.95" font-family="Times,serif" font-size="11.00">netlist.c</text>
</g>
<!-- check.c&#45;&gt;netlist.c -->
<g id="edge25" class="edge">
<title>check.c&#45;&gt;netlist.c</title>
<path fill="none" stroke="#666666" stroke-width="1.5" d="M266.79,-468.29C261.76,-449.6 253.7,-419.73 247.83,-397.96"/>
<polygon fill="#666666" stroke="#666666" stroke-width="1.5" points="251.13,-396.75 245.15,-388.01 244.37,-398.57 251.13,-396.75"/>
<text text-anchor="middle" x="268" y="-424.55" font-family="Times,serif" font-size="14.00">35</text>
</g>
<!-- vhdl_netlist.c -->
<g id="node6" class="node">
<title>vhdl_netlist.c</title>
<polygon fill="lightyellow" stroke="black" points="220,-504.75 129,-504.75 129,-468.75 220,-468.75 220,-504.75"/>
<text text-anchor="middle" x="174.5" y="-483.95" font-family="Times,serif" font-size="11.00">vhdl_netlist.c</text>
</g>
<!-- vhdl_netlist.c&#45;&gt;token.c -->
<g id="edge17" class="edge">
<title>vhdl_netlist.c&#45;&gt;token.c</title>
<path fill="none" stroke="#666666" stroke-width="2.1" d="M174.5,-468.61C174.5,-446.14 174.5,-405.49 174.5,-370.75 174.5,-370.75 174.5,-370.75 174.5,-134.75 174.5,-73.02 381.05,-37.26 469.29,-24.8"/>
<polygon fill="#666666" stroke="#666666" stroke-width="2.1" points="470.02,-28.24 479.44,-23.4 469.06,-21.3 470.02,-28.24"/>
<text text-anchor="middle" x="184" y="-249.05" font-family="Times,serif" font-size="14.00">61</text>
</g>
<!-- scheduler.c -->
<g id="node7" class="node">
<title>scheduler.c</title>
<polygon fill="lightyellow" stroke="black" points="899.5,-504.75 819.5,-504.75 819.5,-468.75 899.5,-468.75 899.5,-504.75"/>
<text text-anchor="middle" x="859.5" y="-483.95" font-family="Times,serif" font-size="11.00">scheduler.c</text>
</g>
<!-- hilight.c -->
<g id="node8" class="node">
<title>hilight.c</title>
<polygon fill="lightyellow" stroke="black" points="1043.5,-387.75 981.5,-387.75 981.5,-351.75 1043.5,-351.75 1043.5,-387.75"/>
<text text-anchor="middle" x="1012.5" y="-366.95" font-family="Times,serif" font-size="11.00">hilight.c</text>
</g>
<!-- scheduler.c&#45;&gt;hilight.c -->
<g id="edge39" class="edge">
<title>scheduler.c&#45;&gt;hilight.c</title>
<path fill="none" stroke="#666666" stroke-width="1.4" d="M899.56,-472.08C920.35,-463.71 945.34,-451.55 964.5,-435.75 977.78,-424.8 989.35,-409.42 997.81,-396.37"/>
<polygon fill="#666666" stroke="#666666" stroke-width="1.4" points="1000.84,-398.13 1003.15,-387.79 994.89,-394.43 1000.84,-398.13"/>
<text text-anchor="middle" x="989" y="-424.55" font-family="Times,serif" font-size="14.00">31</text>
</g>
<!-- xinit.c -->
<g id="node10" class="node">
<title>xinit.c</title>
<polygon fill="lightyellow" stroke="black" points="850.5,-387.75 796.5,-387.75 796.5,-351.75 850.5,-351.75 850.5,-387.75"/>
<text text-anchor="middle" x="823.5" y="-366.95" font-family="Times,serif" font-size="11.00">xinit.c</text>
</g>
<!-- scheduler.c&#45;&gt;xinit.c -->
<g id="edge18" class="edge">
<title>scheduler.c&#45;&gt;xinit.c</title>
<path fill="none" stroke="#666666" stroke-width="2.4" d="M854.03,-468.29C848.16,-449.52 838.75,-419.45 831.92,-397.66"/>
<polygon fill="#666666" stroke="#666666" stroke-width="2.4" points="835.23,-396.51 828.9,-388.01 828.55,-398.6 835.23,-396.51"/>
<text text-anchor="middle" x="854" y="-424.55" font-family="Times,serif" font-size="14.00">73</text>
</g>
<!-- scheduler.c&#45;&gt;move.c -->
<g id="edge6" class="edge">
<title>scheduler.c&#45;&gt;move.c</title>
<path fill="none" stroke="#666666" stroke-width="2.5" d="M819.13,-482.99C764.42,-478.23 664.41,-465.91 584.5,-435.75 556.91,-425.34 528.44,-407.88 507.66,-393.68"/>
<polygon fill="#666666" stroke="#666666" stroke-width="2.5" points="509.46,-390.67 499.26,-387.82 505.46,-396.41 509.46,-390.67"/>
<text text-anchor="middle" x="594" y="-424.55" font-family="Times,serif" font-size="14.00">75</text>
</g>
<!-- scheduler.c&#45;&gt;select.c -->
<g id="edge16" class="edge">
<title>scheduler.c&#45;&gt;select.c</title>
<path fill="none" stroke="#666666" stroke-width="2.2" d="M867.32,-468.54C881.54,-434.48 907.41,-357.18 876.5,-303.75 866.27,-286.07 847.15,-274.09 829.44,-266.31"/>
<polygon fill="#666666" stroke="#666666" stroke-width="2.2" points="830.39,-262.92 819.81,-262.41 827.76,-269.41 830.39,-262.92"/>
<text text-anchor="middle" x="901" y="-366.05" font-family="Times,serif" font-size="14.00">63</text>
</g>
<!-- scheduler.c&#45;&gt;draw.c -->
<g id="edge8" class="edge">
<title>scheduler.c&#45;&gt;draw.c</title>
<path fill="none" stroke="#666666" stroke-width="2.2" d="M819.47,-473.01C793.44,-464.05 759.13,-450.98 730.5,-435.75 642.12,-388.75 549.19,-314.96 504.18,-277.41"/>
<polygon fill="#666666" stroke="#666666" stroke-width="2.2" points="506.26,-274.58 496.35,-270.83 501.76,-279.94 506.26,-274.58"/>
<text text-anchor="middle" x="659" y="-366.05" font-family="Times,serif" font-size="14.00">63</text>
</g>
<!-- scheduler.c&#45;&gt;actions.c -->
<g id="edge13" class="edge">
<title>scheduler.c&#45;&gt;actions.c</title>
<path fill="none" stroke="#666666" stroke-width="4.6" d="M819.39,-469.96C783.73,-454.06 732.43,-426.36 700.5,-387.75 693.39,-379.16 671.26,-316.97 658.61,-280.4"/>
<polygon fill="#666666" stroke="#666666" stroke-width="4.6" points="662.37,-278.98 655.31,-270.84 654.76,-281.6 662.37,-278.98"/>
<text text-anchor="middle" x="714.5" y="-366.05" font-family="Times,serif" font-size="14.00">159</text>
</g>
<!-- scheduler.c&#45;&gt;save.c -->
<g id="edge14" class="edge">
<title>scheduler.c&#45;&gt;save.c</title>
<path fill="none" stroke="#666666" stroke-width="2.6" d="M899.58,-475.89C929.38,-467.61 970.44,-454.17 1003.5,-435.75 1084.14,-390.83 1164.72,-316.32 1203.56,-278.06"/>
<polygon fill="#666666" stroke="#666666" stroke-width="2.6" points="1206.13,-280.44 1210.76,-270.91 1201.2,-275.47 1206.13,-280.44"/>
<text text-anchor="middle" x="1131" y="-366.05" font-family="Times,serif" font-size="14.00">81</text>
</g>
<!-- scheduler.c&#45;&gt;token.c -->
<g id="edge9" class="edge">
<title>scheduler.c&#45;&gt;token.c</title>
<path fill="none" stroke="#666666" stroke-width="2.9" d="M884.48,-468.58C910.5,-448.45 947.5,-412.49 947.5,-370.75 947.5,-370.75 947.5,-370.75 947.5,-134.75 947.5,-52.5 655.47,-27.92 547.77,-21.65"/>
<polygon fill="#666666" stroke="#666666" stroke-width="2.9" points="547.82,-18.15 537.64,-21.09 547.43,-25.14 547.82,-18.15"/>
<text text-anchor="middle" x="957" y="-249.05" font-family="Times,serif" font-size="14.00">93</text>
</g>
<!-- hilight.c&#45;&gt;token.c -->
<g id="edge27" class="edge">
<title>hilight.c&#45;&gt;token.c</title>
<path fill="none" stroke="#666666" stroke-width="1.4" d="M1015.96,-351.74C1025.27,-300.48 1045.07,-146.39 964.5,-69.75 934.55,-41.26 653.25,-26.1 547.99,-21.38"/>
<polygon fill="#666666" stroke="#666666" stroke-width="1.4" points="547.93,-17.88 537.79,-20.93 547.63,-24.87 547.93,-17.88"/>
<text text-anchor="middle" x="1032" y="-190.55" font-family="Times,serif" font-size="14.00">32</text>
</g>
<!-- netlist.c&#45;&gt;token.c -->
<g id="edge24" class="edge">
<title>netlist.c&#45;&gt;token.c</title>
<path fill="none" stroke="#666666" stroke-width="1.7" d="M237.33,-351.42C229.11,-300.59 212.73,-150.42 288.5,-69.75 312.8,-43.89 412.94,-29.59 469.37,-23.44"/>
<polygon fill="#666666" stroke="#666666" stroke-width="1.7" points="469.79,-26.91 479.37,-22.39 469.06,-19.95 469.79,-26.91"/>
<text text-anchor="middle" x="246" y="-190.55" font-family="Times,serif" font-size="14.00">44</text>
</g>
<!-- xinit.c&#45;&gt;actions.c -->
<g id="edge37" class="edge">
<title>xinit.c&#45;&gt;actions.c</title>
<path fill="none" stroke="#666666" stroke-width="1.7" d="M820.47,-351.57C817.04,-336.98 810.06,-316.45 796.5,-303.75 768.18,-277.24 725.24,-264.73 693.07,-258.87"/>
<polygon fill="#666666" stroke="#666666" stroke-width="1.7" points="693.48,-255.39 683.04,-257.19 692.32,-262.29 693.48,-255.39"/>
<text text-anchor="middle" x="818" y="-307.55" font-family="Times,serif" font-size="14.00">44</text>
</g>
<!-- move.c&#45;&gt;draw.c -->
<g id="edge20" class="edge">
<title>move.c&#45;&gt;draw.c</title>
<path fill="none" stroke="#666666" stroke-width="1.7" d="M476.5,-351.29C476.5,-332.69 476.5,-303 476.5,-281.26"/>
<polygon fill="#666666" stroke="#666666" stroke-width="1.7" points="480,-281.01 476.5,-271.01 473,-281.01 480,-281.01"/>
<text text-anchor="middle" x="486" y="-307.55" font-family="Times,serif" font-size="14.00">44</text>
</g>
<!-- select.c&#45;&gt;draw.c -->
<g id="edge33" class="edge">
<title>select.c&#45;&gt;draw.c</title>
<path fill="none" stroke="red" stroke-width="2" stroke-dasharray="5,2" d="M759.31,-270.63C734.23,-284.39 697.1,-302.27 662,-309.75 609.15,-321.03 549.7,-295.8 512.67,-275.38"/>
<polygon fill="red" stroke="red" stroke-width="2" points="514.18,-272.21 503.76,-270.32 510.72,-278.3 514.18,-272.21"/>
<text text-anchor="middle" x="652.5" y="-307.55" font-family="Times,serif" font-size="14.00">58</text>
</g>
<!-- draw.c&#45;&gt;save.c -->
<g id="edge38" class="edge">
<title>draw.c&#45;&gt;save.c</title>
<path fill="none" stroke="red" stroke-width="1.5" stroke-dasharray="5,2" d="M503.82,-259.77C556.06,-272.78 673.89,-300.19 775,-309.75 948.2,-326.14 993.71,-303.88 1164.5,-270.75 1173.09,-269.09 1182.2,-266.8 1190.75,-264.41"/>
<polygon fill="red" stroke="red" stroke-width="1.5" points="1191.83,-267.74 1200.46,-261.59 1189.88,-261.02 1191.83,-267.74"/>
<text text-anchor="middle" x="784.5" y="-307.55" font-family="Times,serif" font-size="14.00">38</text>
</g>
<!-- draw.c&#45;&gt;editprop.c -->
<g id="edge26" class="edge">
<title>draw.c&#45;&gt;editprop.c</title>
<path fill="none" stroke="#666666" stroke-width="1.8" d="M481.36,-234.29C486.58,-215.52 494.95,-185.45 501.01,-163.66"/>
<polygon fill="#666666" stroke="#666666" stroke-width="1.8" points="504.39,-164.58 503.7,-154.01 497.65,-162.7 504.39,-164.58"/>
<text text-anchor="middle" x="504" y="-190.55" font-family="Times,serif" font-size="14.00">48</text>
</g>
<!-- draw.c&#45;&gt;token.c -->
<g id="edge10" class="edge">
<title>draw.c&#45;&gt;token.c</title>
<path fill="none" stroke="#666666" stroke-width="3.7" d="M463.39,-234.36C445.78,-208.76 418.23,-159.45 432.5,-117.75 442.26,-89.24 464.08,-62.6 481.84,-44.32"/>
<polygon fill="#666666" stroke="#666666" stroke-width="3.7" points="484.56,-46.55 489.16,-37.01 479.61,-41.6 484.56,-46.55"/>
<text text-anchor="middle" x="446.5" y="-132.05" font-family="Times,serif" font-size="14.00">125</text>
</g>
<!-- actions.c&#45;&gt;select.c -->
<g id="edge34" class="edge">
<title>actions.c&#45;&gt;select.c</title>
<path fill="none" stroke="red" stroke-width="1.4" stroke-dasharray="5,2" d="M683.03,-252.75C702.83,-252.75 728.01,-252.75 748.92,-252.75"/>
<polygon fill="red" stroke="red" stroke-width="1.4" points="749.1,-256.25 759.1,-252.75 749.1,-249.25 749.1,-256.25"/>
<text text-anchor="middle" x="721.25" y="-259.55" font-family="Times,serif" font-size="14.00">33</text>
</g>
<!-- actions.c&#45;&gt;draw.c -->
<g id="edge29" class="edge">
<title>actions.c&#45;&gt;draw.c</title>
<path fill="none" stroke="red" stroke-width="2.4" stroke-dasharray="5,2" d="M615.84,-252.75C586.51,-252.75 544.04,-252.75 513.71,-252.75"/>
<polygon fill="red" stroke="red" stroke-width="2.4" points="513.53,-249.25 503.53,-252.75 513.53,-256.25 513.53,-249.25"/>
<text text-anchor="middle" x="559.75" y="-259.55" font-family="Times,serif" font-size="14.00">71</text>
</g>
<!-- actions.c&#45;&gt;token.c -->
<g id="edge19" class="edge">
<title>actions.c&#45;&gt;token.c</title>
<path fill="none" stroke="#666666" stroke-width="3.3" d="M639.13,-234.69C614.69,-194.47 553.32,-93.5 524.25,-45.66"/>
<polygon fill="#666666" stroke="#666666" stroke-width="3.3" points="527.07,-43.57 518.88,-36.84 521.09,-47.2 527.07,-43.57"/>
<text text-anchor="middle" x="602.5" y="-132.05" font-family="Times,serif" font-size="14.00">107</text>
</g>
<!-- save.c&#45;&gt;actions.c -->
<g id="edge36" class="edge">
<title>save.c&#45;&gt;actions.c</title>
<path fill="none" stroke="red" stroke-width="1.8" stroke-dasharray="5,2" d="M1200.29,-262.31C1138.59,-282.8 983.31,-327.66 853,-309.75 796.42,-301.98 733.4,-282.58 692.7,-268.58"/>
<polygon fill="red" stroke="red" stroke-width="1.8" points="693.7,-265.22 683.1,-265.23 691.4,-271.83 693.7,-265.22"/>
<text text-anchor="middle" x="862.5" y="-307.55" font-family="Times,serif" font-size="14.00">47</text>
</g>
<!-- save.c&#45;&gt;token.c -->
<g id="edge11" class="edge">
<title>save.c&#45;&gt;token.c</title>
<path fill="none" stroke="#666666" stroke-width="2.6" d="M1226.67,-234.69C1223.86,-197.65 1211.53,-110 1157.5,-69.75 1108.58,-33.31 680.56,-22.78 547.68,-20.37"/>
<polygon fill="#666666" stroke="#666666" stroke-width="2.6" points="547.6,-16.87 537.54,-20.19 547.48,-23.86 547.6,-16.87"/>
<text text-anchor="middle" x="1221" y="-132.05" font-family="Times,serif" font-size="14.00">81</text>
</g>
<!-- spice_netlist.c -->
<g id="node18" class="node">
<title>spice_netlist.c</title>
<polygon fill="lightyellow" stroke="black" points="1308,-36.75 1211,-36.75 1211,-0.75 1308,-0.75 1308,-36.75"/>
<text text-anchor="middle" x="1259.5" y="-15.95" font-family="Times,serif" font-size="11.00">spice_netlist.c</text>
</g>
<!-- save.c&#45;&gt;spice_netlist.c -->
<g id="edge32" class="edge">
<title>save.c&#45;&gt;spice_netlist.c</title>
<path fill="none" stroke="#666666" stroke-width="1.4" d="M1229.85,-234.69C1235.35,-194.81 1249.1,-95.18 1255.76,-46.87"/>
<polygon fill="#666666" stroke="#666666" stroke-width="1.4" points="1259.24,-47.22 1257.14,-36.84 1252.31,-46.27 1259.24,-47.22"/>
<text text-anchor="middle" x="1256" y="-132.05" font-family="Times,serif" font-size="14.00">30</text>
</g>
<!-- editprop.c&#45;&gt;token.c -->
<g id="edge31" class="edge">
<title>editprop.c&#45;&gt;token.c</title>
<path fill="none" stroke="#666666" stroke-width="1.7" d="M508.5,-117.29C508.5,-98.69 508.5,-69 508.5,-47.26"/>
<polygon fill="#666666" stroke="#666666" stroke-width="1.7" points="512,-47.01 508.5,-37.01 505,-47.01 512,-47.01"/>
<text text-anchor="middle" x="518" y="-73.55" font-family="Times,serif" font-size="14.00">43</text>
</g>
<!-- token.c&#45;&gt;spice_netlist.c -->
<g id="edge40" class="edge">
<title>token.c&#45;&gt;spice_netlist.c</title>
<path fill="none" stroke="red" stroke-width="1.7" stroke-dasharray="5,2" d="M537.57,-16.79C598.31,-12.79 743.1,-3.83 864.75,-0.75 984.21,2.26 1123.85,-7.16 1200.91,-13.49"/>
<polygon fill="red" stroke="red" stroke-width="1.7" points="1200.65,-16.98 1210.91,-14.32 1201.23,-10 1200.65,-16.98"/>
<text text-anchor="middle" x="874.25" y="-4.55" font-family="Times,serif" font-size="14.00">43</text>
</g>
<!-- spice_netlist.c&#45;&gt;token.c -->
<g id="edge22" class="edge">
<title>spice_netlist.c&#45;&gt;token.c</title>
<path fill="none" stroke="red" stroke-width="2" stroke-dasharray="5,2" d="M1210.81,-18.75C1071.77,-18.75 674.84,-18.75 547.99,-18.75"/>
<polygon fill="red" stroke="red" stroke-width="2" points="547.94,-15.25 537.94,-18.75 547.94,-22.25 547.94,-15.25"/>
<text text-anchor="middle" x="874.25" y="-25.55" font-family="Times,serif" font-size="14.00">54</text>
</g>
<!-- L0 -->
<g id="node19" class="node">
<title>L0</title>
<polygon fill="transparent" stroke="transparent" points="1443,-504.75 1332,-504.75 1332,-468.75 1443,-468.75 1443,-504.75"/>
<text text-anchor="middle" x="1387.5" y="-483.95" font-family="Times,serif" font-size="11.00" fill="blue">0: entry / drivers</text>
</g>
<!-- L1 -->
<g id="node20" class="node">
<title>L1</title>
<polygon fill="transparent" stroke="transparent" points="1442,-387.75 1333,-387.75 1333,-351.75 1442,-351.75 1442,-387.75"/>
<text text-anchor="middle" x="1387.5" y="-366.95" font-family="Times,serif" font-size="11.00" fill="blue">1: high&#45;level ops</text>
</g>
<!-- L0&#45;&gt;L1 -->
<!-- L2 -->
<g id="node21" class="node">
<title>L2</title>
<polygon fill="transparent" stroke="transparent" points="1438.5,-270.75 1336.5,-270.75 1336.5,-234.75 1438.5,-234.75 1438.5,-270.75"/>
<text text-anchor="middle" x="1387.5" y="-249.95" font-family="Times,serif" font-size="11.00" fill="blue">2: mid services</text>
</g>
<!-- L1&#45;&gt;L2 -->
<!-- L3 -->
<g id="node22" class="node">
<title>L3</title>
<polygon fill="transparent" stroke="transparent" points="1440.5,-153.75 1334.5,-153.75 1334.5,-117.75 1440.5,-117.75 1440.5,-153.75"/>
<text text-anchor="middle" x="1387.5" y="-132.95" font-family="Times,serif" font-size="11.00" fill="blue">3: core services</text>
</g>
<!-- L2&#45;&gt;L3 -->
<!-- L4 -->
<g id="node23" class="node">
<title>L4</title>
<polygon fill="transparent" stroke="transparent" points="1445,-36.75 1330,-36.75 1330,-0.75 1445,-0.75 1445,-36.75"/>
<text text-anchor="middle" x="1387.5" y="-15.95" font-family="Times,serif" font-size="11.00" fill="blue">4: data &amp; parsing</text>
</g>
<!-- L3&#45;&gt;L4 -->
</g>
</svg>
