<?xml version="1.0" encoding="UTF-8" standalone="no"?>
<!DOCTYPE svg PUBLIC "-//W3C//DTD SVG 1.1//EN"
 "http://www.w3.org/Graphics/SVG/1.1/DTD/svg11.dtd">
<!-- Generated by graphviz version 2.43.0 (0)
 -->
<!-- Title: backbone Pages: 1 -->
<svg width="977pt" height="765pt"
 viewBox="0.00 0.00 977.00 765.26" xmlns="http://www.w3.org/2000/svg" xmlns:xlink="http://www.w3.org/1999/xlink">
<g id="graph0" class="graph" transform="scale(1 1) rotate(0) translate(4 761.26)">
<title>backbone</title>
<polygon fill="white" stroke="transparent" points="-4,4 -4,-761.26 973,-761.26 973,4 -4,4"/>
<text text-anchor="middle" x="484.5" y="-7.8" font-family="Times,serif" font-size="14.00">xschem core dependency backbone (&gt;=30 calls, leaf utils excluded)</text>
<!-- callback.c -->
<g id="node1" class="node">
<title>callback.c</title>
<polygon fill="#000000" stroke="black" points="76.5,-660.26 3.5,-660.26 3.5,-624.26 76.5,-624.26 76.5,-660.26"/>
<text text-anchor="middle" x="40" y="-639.46" font-family="Times,serif" font-size="11.00">callback.c</text>
</g>
<!-- token.c -->
<g id="node2" class="node">
<title>token.c</title>
<polygon fill="#000000" stroke="black" points="816,-344.26 758,-344.26 758,-308.26 816,-308.26 816,-344.26"/>
<text text-anchor="middle" x="787" y="-323.46" font-family="Times,serif" font-size="11.00">token.c</text>
</g>
<!-- callback.c&#45;&gt;token.c -->
<g id="edge1" class="edge">
<title>callback.c&#45;&gt;token.c</title>
<path fill="none" stroke="black" stroke-width="3.2" d="M63.41,-660.52C88.17,-678.81 129.99,-704.26 171,-704.26 171,-704.26 171,-704.26 552,-704.26 647.1,-704.26 684.01,-677.85 739,-600.26 766.84,-560.97 779.83,-416.49 784.21,-354.65"/>
<polygon fill="black" stroke="black" stroke-width="3.2" points="787.72,-354.66 784.91,-344.44 780.74,-354.18 787.72,-354.66"/>
<text text-anchor="middle" x="396" y="-708.06" font-family="Times,serif" font-size="14.00">96</text>
</g>
<!-- move.c -->
<g id="node4" class="node">
<title>move.c</title>
<polygon fill="#000000" stroke="black" points="200,-506.26 144,-506.26 144,-470.26 200,-470.26 200,-506.26"/>
<text text-anchor="middle" x="172" y="-485.46" font-family="Times,serif" font-size="11.00">move.c</text>
</g>
<!-- callback.c&#45;&gt;move.c -->
<g id="edge3" class="edge">
<title>callback.c&#45;&gt;move.c</title>
<path fill="none" stroke="black" stroke-width="3.5" d="M44.21,-624.16C50.04,-596.45 64.98,-543.55 98,-513.26 107.97,-504.11 121.44,-498.29 134.09,-494.59"/>
<polygon fill="black" stroke="black" stroke-width="3.5" points="135.16,-497.93 143.98,-492.06 133.42,-491.15 135.16,-497.93"/>
<text text-anchor="middle" x="112" y="-517.06" font-family="Times,serif" font-size="14.00">110</text>
</g>
<!-- draw.c -->
<g id="node5" class="node">
<title>draw.c</title>
<polygon fill="#000000" stroke="black" points="345.5,-514.26 291.5,-514.26 291.5,-478.26 345.5,-478.26 345.5,-514.26"/>
<text text-anchor="middle" x="318.5" y="-493.46" font-family="Times,serif" font-size="11.00">draw.c</text>
</g>
<!-- callback.c&#45;&gt;draw.c -->
<g id="edge8" class="edge">
<title>callback.c&#45;&gt;draw.c</title>
<path fill="none" stroke="black" stroke-width="2.4" d="M71.61,-624.17C80.11,-619.24 89.37,-613.97 98,-609.26 162.3,-574.12 238.61,-535.52 282.21,-513.75"/>
<polygon fill="black" stroke="black" stroke-width="2.4" points="283.88,-516.83 291.26,-509.24 280.75,-510.57 283.88,-516.83"/>
<text text-anchor="middle" x="172" y="-588.06" font-family="Times,serif" font-size="14.00">62</text>
</g>
<!-- actions.c -->
<g id="node7" class="node">
<title>actions.c</title>
<polygon fill="#000000" stroke="black" points="671.5,-460.26 604.5,-460.26 604.5,-424.26 671.5,-424.26 671.5,-460.26"/>
<text text-anchor="middle" x="638" y="-439.46" font-family="Times,serif" font-size="11.00">actions.c</text>
</g>
<!-- callback.c&#45;&gt;actions.c -->
<g id="edge26" class="edge">
<title>callback.c&#45;&gt;actions.c</title>
<path fill="none" stroke="black" stroke-width="3.9" d="M76.76,-645.29C160.21,-650.69 371.86,-654.49 519,-571.26 530.88,-564.54 584.33,-503.56 615.06,-467.9"/>
<polygon fill="black" stroke="black" stroke-width="3.9" points="617.75,-470.14 621.62,-460.28 612.45,-465.58 617.75,-470.14"/>
<text text-anchor="middle" x="318.5" y="-643.06" font-family="Times,serif" font-size="14.00">123</text>
</g>
<!-- select.c -->
<g id="node9" class="node">
<title>select.c</title>
<polygon fill="#000000" stroke="black" points="817,-675.26 757,-675.26 757,-639.26 817,-639.26 817,-675.26"/>
<text text-anchor="middle" x="787" y="-654.46" font-family="Times,serif" font-size="11.00">select.c</text>
</g>
<!-- callback.c&#45;&gt;select.c -->
<g id="edge31" class="edge">
<title>callback.c&#45;&gt;select.c</title>
<path fill="none" stroke="black" stroke-width="1.8" d="M50.36,-660.46C60.08,-677.67 76.83,-703.06 98,-718.26 125.75,-738.17 136.85,-742.26 171,-742.26 171,-742.26 171,-742.26 639,-742.26 687.3,-742.26 733.98,-707.45 761.34,-682.38"/>
<polygon fill="black" stroke="black" stroke-width="1.8" points="763.98,-684.69 768.86,-675.28 759.18,-679.6 763.98,-684.69"/>
<text text-anchor="middle" x="396" y="-746.06" font-family="Times,serif" font-size="14.00">41</text>
</g>
<!-- editprop.c -->
<g id="node14" class="node">
<title>editprop.c</title>
<polygon fill="#000000" stroke="black" points="519,-562.26 445,-562.26 445,-526.26 519,-526.26 519,-562.26"/>
<text text-anchor="middle" x="482" y="-541.46" font-family="Times,serif" font-size="11.00">editprop.c</text>
</g>
<!-- callback.c&#45;&gt;editprop.c -->
<g id="edge19" class="edge">
<title>callback.c&#45;&gt;editprop.c</title>
<path fill="none" stroke="black" stroke-width="1.6" d="M76.63,-634.32C155.84,-616.68 346.49,-574.22 434.74,-554.56"/>
<polygon fill="black" stroke="black" stroke-width="1.6" points="435.72,-557.93 444.72,-552.34 434.2,-551.09 435.72,-557.93"/>
<text text-anchor="middle" x="245" y="-606.06" font-family="Times,serif" font-size="14.00">34</text>
</g>
<!-- spice_netlist.c -->
<g id="node13" class="node">
<title>spice_netlist.c</title>
<polygon fill="#000000" stroke="black" points="969,-382.26 872,-382.26 872,-346.26 969,-346.26 969,-382.26"/>
<text text-anchor="middle" x="920.5" y="-361.46" font-family="Times,serif" font-size="11.00">spice_netlist.c</text>
</g>
<!-- token.c&#45;&gt;spice_netlist.c -->
<g id="edge36" class="edge">
<title>token.c&#45;&gt;spice_netlist.c</title>
<path fill="none" stroke="black" stroke-width="1.9" d="M816.08,-321.04C827.98,-319.84 841.87,-319.77 854,-323.26 866.39,-326.82 878.71,-333.48 889.26,-340.42"/>
<polygon fill="black" stroke="black" stroke-width="1.9" points="887.46,-343.43 897.67,-346.24 891.45,-337.67 887.46,-343.43"/>
<text text-anchor="middle" x="844.5" y="-327.06" font-family="Times,serif" font-size="14.00">43</text>
</g>
<!-- scheduler.c -->
<g id="node3" class="node">
<title>scheduler.c</title>
<polygon fill="#000000" stroke="black" points="80,-368.26 0,-368.26 0,-332.26 80,-332.26 80,-368.26"/>
<text text-anchor="middle" x="40" y="-347.46" font-family="Times,serif" font-size="11.00">scheduler.c</text>
</g>
<!-- scheduler.c&#45;&gt;token.c -->
<g id="edge5" class="edge">
<title>scheduler.c&#45;&gt;token.c</title>
<path fill="none" stroke="black" stroke-width="3.1" d="M41.63,-332.04C44.74,-273.09 63.08,-91.26 171,-91.26 171,-91.26 171,-91.26 639,-91.26 735.67,-91.26 771.14,-235.95 781.93,-298.26"/>
<polygon fill="black" stroke="black" stroke-width="3.1" points="778.49,-298.91 783.57,-308.21 785.4,-297.77 778.49,-298.91"/>
<text text-anchor="middle" x="396" y="-95.06" font-family="Times,serif" font-size="14.00">93</text>
</g>
<!-- scheduler.c&#45;&gt;move.c -->
<g id="edge2" class="edge">
<title>scheduler.c&#45;&gt;move.c</title>
<path fill="none" stroke="black" stroke-width="2.7" d="M47.69,-368.55C56.42,-390.33 73.52,-426.7 98,-450.26 108.34,-460.21 121.79,-468.2 134.33,-474.23"/>
<polygon fill="black" stroke="black" stroke-width="2.7" points="133.13,-477.53 143.68,-478.47 136.02,-471.15 133.13,-477.53"/>
<text text-anchor="middle" x="112" y="-473.06" font-family="Times,serif" font-size="14.00">75</text>
</g>
<!-- scheduler.c&#45;&gt;draw.c -->
<g id="edge4" class="edge">
<title>scheduler.c&#45;&gt;draw.c</title>
<path fill="none" stroke="black" stroke-width="2.4" d="M56.49,-368.48C67.2,-380.2 82.3,-395.09 98,-405.26 139.01,-431.82 154.85,-427.58 200,-446.26 227.6,-457.68 258.7,-470.93 281.97,-480.92"/>
<polygon fill="black" stroke="black" stroke-width="2.4" points="280.86,-484.25 291.43,-484.99 283.62,-477.82 280.86,-484.25"/>
<text text-anchor="middle" x="172" y="-450.06" font-family="Times,serif" font-size="14.00">63</text>
</g>
<!-- save.c -->
<g id="node6" class="node">
<title>save.c</title>
<polygon fill="#000000" stroke="black" points="509,-377.26 455,-377.26 455,-341.26 509,-341.26 509,-377.26"/>
<text text-anchor="middle" x="482" y="-356.46" font-family="Times,serif" font-size="11.00">save.c</text>
</g>
<!-- scheduler.c&#45;&gt;save.c -->
<g id="edge10" class="edge">
<title>scheduler.c&#45;&gt;save.c</title>
<path fill="none" stroke="black" stroke-width="2.8" d="M80.22,-342.8C138.54,-332.76 251.48,-317.35 347,-328.26 380.66,-332.1 418.17,-341.2 444.92,-348.56"/>
<polygon fill="black" stroke="black" stroke-width="2.8" points="444.04,-351.95 454.62,-351.28 445.93,-345.21 444.04,-351.95"/>
<text text-anchor="middle" x="245" y="-329.06" font-family="Times,serif" font-size="14.00">81</text>
</g>
<!-- scheduler.c&#45;&gt;actions.c -->
<g id="edge9" class="edge">
<title>scheduler.c&#45;&gt;actions.c</title>
<path fill="none" stroke="black" stroke-width="4.8" d="M80.11,-356.29C186.98,-372.79 483.37,-418.54 594.33,-435.67"/>
<polygon fill="black" stroke="black" stroke-width="4.8" points="593.96,-439.86 604.48,-437.24 595.24,-431.56 593.96,-439.86"/>
<text text-anchor="middle" x="318.5" y="-400.06" font-family="Times,serif" font-size="14.00">159</text>
</g>
<!-- scheduler.c&#45;&gt;select.c -->
<g id="edge12" class="edge">
<title>scheduler.c&#45;&gt;select.c</title>
<path fill="none" stroke="black" stroke-width="2.4" d="M42.22,-368.41C46.46,-414.49 64.99,-534.85 144,-571.26 188.88,-591.94 533.94,-636.38 583,-642.26 639.65,-649.04 705.58,-653.23 746.56,-655.41"/>
<polygon fill="black" stroke="black" stroke-width="2.4" points="746.51,-658.91 756.67,-655.93 746.87,-651.92 746.51,-658.91"/>
<text text-anchor="middle" x="396" y="-625.06" font-family="Times,serif" font-size="14.00">63</text>
</g>
<!-- xinit.c -->
<g id="node11" class="node">
<title>xinit.c</title>
<polygon fill="#000000" stroke="black" points="272,-286.26 218,-286.26 218,-250.26 272,-250.26 272,-286.26"/>
<text text-anchor="middle" x="245" y="-265.46" font-family="Times,serif" font-size="11.00">xinit.c</text>
</g>
<!-- scheduler.c&#45;&gt;xinit.c -->
<g id="edge14" class="edge">
<title>scheduler.c&#45;&gt;xinit.c</title>
<path fill="none" stroke="black" stroke-width="2.6" d="M50.21,-332.09C59.72,-315.45 76.23,-291.72 98,-280.26 131.92,-262.4 176.51,-261.41 207.45,-263.61"/>
<polygon fill="black" stroke="black" stroke-width="2.6" points="207.52,-267.13 217.78,-264.51 208.12,-260.16 207.52,-267.13"/>
<text text-anchor="middle" x="112" y="-284.06" font-family="Times,serif" font-size="14.00">73</text>
</g>
<!-- hilight.c -->
<g id="node17" class="node">
<title>hilight.c</title>
<polygon fill="#000000" stroke="black" points="427,-67.26 365,-67.26 365,-31.26 427,-31.26 427,-67.26"/>
<text text-anchor="middle" x="396" y="-46.46" font-family="Times,serif" font-size="11.00">hilight.c</text>
</g>
<!-- scheduler.c&#45;&gt;hilight.c -->
<g id="edge35" class="edge">
<title>scheduler.c&#45;&gt;hilight.c</title>
<path fill="none" stroke="black" stroke-width="1.6" d="M42.44,-332.22C47.14,-277.62 63.75,-115.48 98,-77.26 162.31,-5.5 290.01,-23.25 355,-38.31"/>
<polygon fill="black" stroke="black" stroke-width="1.6" points="354.33,-41.75 364.87,-40.69 355.97,-34.95 354.33,-41.75"/>
<text text-anchor="middle" x="172" y="-47.06" font-family="Times,serif" font-size="14.00">31</text>
</g>
<!-- move.c&#45;&gt;draw.c -->
<g id="edge16" class="edge">
<title>move.c&#45;&gt;draw.c</title>
<path fill="none" stroke="black" stroke-width="1.9" d="M200.18,-489.76C223.07,-491.03 256.01,-492.85 281.16,-494.25"/>
<polygon fill="black" stroke="black" stroke-width="1.9" points="281.24,-497.75 291.42,-494.81 281.62,-490.77 281.24,-497.75"/>
<text text-anchor="middle" x="245" y="-497.06" font-family="Times,serif" font-size="14.00">44</text>
</g>
<!-- draw.c&#45;&gt;token.c -->
<g id="edge6" class="edge">
<title>draw.c&#45;&gt;token.c</title>
<path fill="none" stroke="black" stroke-width="3.9" d="M345.66,-497.74C421.08,-501.51 637.07,-508.53 693,-469.26 708.62,-458.29 700.08,-445.92 711,-430.26 721.07,-415.82 728.08,-416.06 739,-402.26 751.12,-386.95 762.69,-368.32 771.31,-353.34"/>
<polygon fill="black" stroke="black" stroke-width="3.9" points="774.41,-354.97 776.28,-344.54 768.31,-351.53 774.41,-354.97"/>
<text text-anchor="middle" x="551" y="-502.06" font-family="Times,serif" font-size="14.00">125</text>
</g>
<!-- draw.c&#45;&gt;save.c -->
<g id="edge34" class="edge">
<title>draw.c&#45;&gt;save.c</title>
<path fill="none" stroke="black" stroke-width="1.8" d="M333.29,-478.14C341.85,-467.44 353.4,-453.93 365,-443.26 390.42,-419.86 422.41,-397.12 446.36,-381.21"/>
<polygon fill="black" stroke="black" stroke-width="1.8" points="448.36,-384.09 454.79,-375.67 444.51,-378.24 448.36,-384.09"/>
<text text-anchor="middle" x="396" y="-447.06" font-family="Times,serif" font-size="14.00">38</text>
</g>
<!-- draw.c&#45;&gt;editprop.c -->
<g id="edge22" class="edge">
<title>draw.c&#45;&gt;editprop.c</title>
<path fill="none" stroke="black" stroke-width="2" d="M345.86,-505.87C352.11,-508.06 358.77,-510.3 365,-512.26 387.89,-519.43 413.58,-526.61 434.96,-532.34"/>
<polygon fill="black" stroke="black" stroke-width="2" points="434.2,-535.76 444.76,-534.95 436,-528.99 434.2,-535.76"/>
<text text-anchor="middle" x="396" y="-533.06" font-family="Times,serif" font-size="14.00">48</text>
</g>
<!-- save.c&#45;&gt;token.c -->
<g id="edge7" class="edge">
<title>save.c&#45;&gt;token.c</title>
<path fill="none" stroke="black" stroke-width="2.8" d="M509.29,-357.94C555.81,-355.37 655.6,-348.83 739,-336.26 741.86,-335.83 744.81,-335.33 747.77,-334.79"/>
<polygon fill="black" stroke="black" stroke-width="2.8" points="748.62,-338.19 757.77,-332.84 747.28,-331.32 748.62,-338.19"/>
<text text-anchor="middle" x="638" y="-356.06" font-family="Times,serif" font-size="14.00">81</text>
</g>
<!-- save.c&#45;&gt;actions.c -->
<g id="edge32" class="edge">
<title>save.c&#45;&gt;actions.c</title>
<path fill="none" stroke="black" stroke-width="2" d="M509.12,-373.34C532.72,-386.05 567.84,-404.98 595.31,-419.79"/>
<polygon fill="black" stroke="black" stroke-width="2" points="593.84,-422.97 604.31,-424.64 597.17,-416.81 593.84,-422.97"/>
<text text-anchor="middle" x="551" y="-406.06" font-family="Times,serif" font-size="14.00">47</text>
</g>
<!-- save.c&#45;&gt;spice_netlist.c -->
<g id="edge28" class="edge">
<title>save.c&#45;&gt;spice_netlist.c</title>
<path fill="none" stroke="black" stroke-width="1.6" d="M509.08,-366.13C551.19,-376.84 636.91,-397.02 711,-404.26 723.39,-405.47 726.63,-405.61 739,-404.26 780.53,-399.71 826.48,-389.45 861.63,-380.46"/>
<polygon fill="black" stroke="black" stroke-width="1.6" points="862.91,-383.74 871.71,-377.84 861.15,-376.97 862.91,-383.74"/>
<text text-anchor="middle" x="725" y="-408.06" font-family="Times,serif" font-size="14.00">30</text>
</g>
<!-- actions.c&#45;&gt;token.c -->
<g id="edge15" class="edge">
<title>actions.c&#45;&gt;token.c</title>
<path fill="none" stroke="black" stroke-width="3.5" d="M662.53,-424.09C682.85,-408.36 712.96,-384.93 739,-364.26 744.41,-359.96 750.15,-355.36 755.68,-350.9"/>
<polygon fill="black" stroke="black" stroke-width="3.5" points="758.01,-353.51 763.59,-344.51 753.61,-348.07 758.01,-353.51"/>
<text text-anchor="middle" x="725" y="-389.06" font-family="Times,serif" font-size="14.00">107</text>
</g>
<!-- actions.c&#45;&gt;draw.c -->
<g id="edge25" class="edge">
<title>actions.c&#45;&gt;draw.c</title>
<path fill="none" stroke="black" stroke-width="2.6" d="M604.28,-446.15C565.98,-450.88 500.69,-459.44 445,-469.26 409.2,-475.57 400.53,-478.58 365,-486.26 362.01,-486.9 358.92,-487.58 355.81,-488.25"/>
<polygon fill="black" stroke="black" stroke-width="2.6" points="354.98,-484.85 345.96,-490.41 356.48,-491.69 354.98,-484.85"/>
<text text-anchor="middle" x="482" y="-473.06" font-family="Times,serif" font-size="14.00">71</text>
</g>
<!-- actions.c&#45;&gt;select.c -->
<g id="edge30" class="edge">
<title>actions.c&#45;&gt;select.c</title>
<path fill="none" stroke="black" stroke-width="1.6" d="M651.7,-460.51C662.68,-476.29 678.94,-499.74 693,-520.26 719.25,-558.55 749.4,-603.06 768.08,-630.7"/>
<polygon fill="black" stroke="black" stroke-width="1.6" points="765.22,-632.72 773.72,-639.05 771.02,-628.8 765.22,-632.72"/>
<text text-anchor="middle" x="725" y="-591.06" font-family="Times,serif" font-size="14.00">33</text>
</g>
<!-- verilog_netlist.c -->
<g id="node8" class="node">
<title>verilog_netlist.c</title>
<polygon fill="#000000" stroke="black" points="691.5,-317.26 584.5,-317.26 584.5,-281.26 691.5,-281.26 691.5,-317.26"/>
<text text-anchor="middle" x="638" y="-296.46" font-family="Times,serif" font-size="11.00">verilog_netlist.c</text>
</g>
<!-- verilog_netlist.c&#45;&gt;token.c -->
<g id="edge11" class="edge">
<title>verilog_netlist.c&#45;&gt;token.c</title>
<path fill="none" stroke="black" stroke-width="2" d="M691.66,-308.93C710.08,-312.31 730.4,-316.05 747.45,-319.18"/>
<polygon fill="black" stroke="black" stroke-width="2" points="747.13,-322.68 757.6,-321.04 748.4,-315.79 747.13,-322.68"/>
<text text-anchor="middle" x="725" y="-321.06" font-family="Times,serif" font-size="14.00">50</text>
</g>
<!-- select.c&#45;&gt;draw.c -->
<g id="edge29" class="edge">
<title>select.c&#45;&gt;draw.c</title>
<path fill="none" stroke="black" stroke-width="2.2" d="M756.89,-652.14C672.92,-636.99 431.99,-590.82 365,-548.26 354.43,-541.54 344.91,-531.65 337.35,-522.3"/>
<polygon fill="black" stroke="black" stroke-width="2.2" points="340.08,-520.12 331.22,-514.31 334.53,-524.37 340.08,-520.12"/>
<text text-anchor="middle" x="551" y="-615.06" font-family="Times,serif" font-size="14.00">58</text>
</g>
<!-- vhdl_netlist.c -->
<g id="node10" class="node">
<title>vhdl_netlist.c</title>
<polygon fill="#000000" stroke="black" points="683.5,-263.26 592.5,-263.26 592.5,-227.26 683.5,-227.26 683.5,-263.26"/>
<text text-anchor="middle" x="638" y="-242.46" font-family="Times,serif" font-size="11.00">vhdl_netlist.c</text>
</g>
<!-- vhdl_netlist.c&#45;&gt;token.c -->
<g id="edge13" class="edge">
<title>vhdl_netlist.c&#45;&gt;token.c</title>
<path fill="none" stroke="black" stroke-width="2.3" d="M680.66,-263.39C698.92,-271.81 720.39,-282.36 739,-293.26 743.73,-296.03 748.6,-299.13 753.33,-302.3"/>
<polygon fill="black" stroke="black" stroke-width="2.3" points="751.4,-305.22 761.62,-308 755.37,-299.45 751.4,-305.22"/>
<text text-anchor="middle" x="725" y="-297.06" font-family="Times,serif" font-size="14.00">61</text>
</g>
<!-- xinit.c&#45;&gt;actions.c -->
<g id="edge33" class="edge">
<title>xinit.c&#45;&gt;actions.c</title>
<path fill="none" stroke="black" stroke-width="1.9" d="M272.12,-266.41C307.88,-264.67 373.74,-264.35 427,-280.26 507.73,-304.38 580.34,-376.78 615.2,-416.13"/>
<polygon fill="black" stroke="black" stroke-width="1.9" points="612.84,-418.75 622.05,-423.99 618.12,-414.15 612.84,-418.75"/>
<text text-anchor="middle" x="396" y="-284.06" font-family="Times,serif" font-size="14.00">44</text>
</g>
<!-- spectre_netlist.c -->
<g id="node12" class="node">
<title>spectre_netlist.c</title>
<polygon fill="#000000" stroke="black" points="693,-209.26 583,-209.26 583,-173.26 693,-173.26 693,-209.26"/>
<text text-anchor="middle" x="638" y="-188.46" font-family="Times,serif" font-size="11.00">spectre_netlist.c</text>
</g>
<!-- spectre_netlist.c&#45;&gt;token.c -->
<g id="edge17" class="edge">
<title>spectre_netlist.c&#45;&gt;token.c</title>
<path fill="none" stroke="black" stroke-width="1.9" d="M678.34,-209.38C683.39,-212.16 688.4,-215.14 693,-218.26 715.67,-233.63 720.79,-238.8 739,-259.26 750.02,-271.64 760.76,-286.65 769.18,-299.33"/>
<polygon fill="black" stroke="black" stroke-width="1.9" points="766.49,-301.6 774.88,-308.07 772.35,-297.78 766.49,-301.6"/>
<text text-anchor="middle" x="725" y="-263.06" font-family="Times,serif" font-size="14.00">45</text>
</g>
<!-- spice_netlist.c&#45;&gt;token.c -->
<g id="edge18" class="edge">
<title>spice_netlist.c&#45;&gt;token.c</title>
<path fill="none" stroke="black" stroke-width="2.2" d="M871.96,-352.53C859.86,-349.37 846.91,-345.83 835,-342.26 832.04,-341.37 828.99,-340.42 825.93,-339.43"/>
<polygon fill="black" stroke="black" stroke-width="2.2" points="826.82,-336.04 816.22,-336.24 824.63,-342.69 826.82,-336.04"/>
<text text-anchor="middle" x="844.5" y="-351.06" font-family="Times,serif" font-size="14.00">54</text>
</g>
<!-- editprop.c&#45;&gt;token.c -->
<g id="edge27" class="edge">
<title>editprop.c&#45;&gt;token.c</title>
<path fill="none" stroke="black" stroke-width="1.9" d="M519.37,-544.24C562.75,-542.89 636.49,-536.31 693,-509.26 752.39,-480.82 774.5,-398.1 782.2,-354.27"/>
<polygon fill="black" stroke="black" stroke-width="1.9" points="785.68,-354.71 783.82,-344.28 778.77,-353.59 785.68,-354.71"/>
<text text-anchor="middle" x="638" y="-542.06" font-family="Times,serif" font-size="14.00">43</text>
</g>
<!-- netlist.c -->
<g id="node15" class="node">
<title>netlist.c</title>
<polygon fill="#000000" stroke="black" points="669,-155.26 607,-155.26 607,-119.26 669,-119.26 669,-155.26"/>
<text text-anchor="middle" x="638" y="-134.46" font-family="Times,serif" font-size="11.00">netlist.c</text>
</g>
<!-- netlist.c&#45;&gt;token.c -->
<g id="edge20" class="edge">
<title>netlist.c&#45;&gt;token.c</title>
<path fill="none" stroke="black" stroke-width="1.9" d="M669.21,-150.09C677.27,-154.11 685.74,-158.91 693,-164.26 716.79,-181.79 722.87,-187.5 739,-212.26 756.69,-239.41 769.9,-274.31 777.73,-298.3"/>
<polygon fill="black" stroke="black" stroke-width="1.9" points="774.4,-299.39 780.76,-307.86 781.08,-297.27 774.4,-299.39"/>
<text text-anchor="middle" x="725" y="-216.06" font-family="Times,serif" font-size="14.00">44</text>
</g>
<!-- check.c -->
<g id="node16" class="node">
<title>check.c</title>
<polygon fill="#000000" stroke="black" points="511.5,-155.26 452.5,-155.26 452.5,-119.26 511.5,-119.26 511.5,-155.26"/>
<text text-anchor="middle" x="482" y="-134.46" font-family="Times,serif" font-size="11.00">check.c</text>
</g>
<!-- check.c&#45;&gt;netlist.c -->
<g id="edge21" class="edge">
<title>check.c&#45;&gt;netlist.c</title>
<path fill="none" stroke="black" stroke-width="1.7" d="M511.61,-137.26C535.56,-137.26 570.03,-137.26 596.77,-137.26"/>
<polygon fill="black" stroke="black" stroke-width="1.7" points="596.97,-140.76 606.97,-137.26 596.97,-133.76 596.97,-140.76"/>
<text text-anchor="middle" x="551" y="-141.06" font-family="Times,serif" font-size="14.00">35</text>
</g>
<!-- hilight.c&#45;&gt;token.c -->
<g id="edge23" class="edge">
<title>hilight.c&#45;&gt;token.c</title>
<path fill="none" stroke="black" stroke-width="1.6" d="M427.24,-40.98C493.18,-24.93 651.06,2.25 739,-77.26 771.26,-106.42 781.72,-239.04 784.82,-297.93"/>
<polygon fill="black" stroke="black" stroke-width="1.6" points="781.33,-298.21 785.31,-308.03 788.32,-297.87 781.33,-298.21"/>
<text text-anchor="middle" x="551" y="-28.06" font-family="Times,serif" font-size="14.00">32</text>
</g>
<!-- paste.c -->
<g id="node18" class="node">
<title>paste.c</title>
<polygon fill="#000000" stroke="black" points="347,-373.26 290,-373.26 290,-337.26 347,-337.26 347,-373.26"/>
<text text-anchor="middle" x="318.5" y="-352.46" font-family="Times,serif" font-size="11.00">paste.c</text>
</g>
<!-- paste.c&#45;&gt;save.c -->
<g id="edge24" class="edge">
<title>paste.c&#45;&gt;save.c</title>
<path fill="none" stroke="black" stroke-width="1.6" d="M347.26,-355.94C374.17,-356.61 415.13,-357.63 444.63,-358.36"/>
<polygon fill="black" stroke="black" stroke-width="1.6" points="444.85,-361.86 454.93,-358.61 445.02,-354.87 444.85,-361.86"/>
<text text-anchor="middle" x="396" y="-361.06" font-family="Times,serif" font-size="14.00">33</text>
</g>
</g>
</svg>
